HIERARCHY
ROOT Hips
{
	OFFSET -3.958830 18.904000 13.208200
	CHANNELS 6 Xposition Yposition Zposition Zrotation Yrotation Xrotation 
	JOINT LHipJoint
	{
		OFFSET 0.000000 0.000000 0.000000
		CHANNELS 3 Zrotation Yrotation Xrotation
		JOINT LeftUpLeg
		{
			OFFSET 1.800000 -1.400000 0.085000
			CHANNELS 3 Zrotation Yrotation Xrotation
			JOINT LeftLeg
			{
				OFFSET 2.215000 -6.000000 0.000000
				CHANNELS 3 Zrotation Yrotation Xrotation
				JOINT LeftFoot
				{
					OFFSET 2.500000 -6.900000 0.000000
					CHANNELS 3 Zrotation Yrotation Xrotation
					JOINT LeftToeBase
					{
						OFFSET 0.200000 -0.500000 1.950000
						CHANNELS 3 Zrotation Yrotation Xrotation
						End Site
						{
							OFFSET 0.000000 0.000000 0.000000
						}
					}
				}
			}
		}
	}
	JOINT RHipJoint
	{
		OFFSET 0.000000 0.000000 0.000000
		CHANNELS 3 Zrotation Yrotation Xrotation
		JOINT RightUpLeg
		{
			OFFSET -1.800000 -1.400000 0.085000
			CHANNELS 3 Zrotation Yrotation Xrotation
			JOINT RightLeg
			{
				OFFSET -2.215000 -6.000000 0.000000
				CHANNELS 3 Zrotation Yrotation Xrotation
				JOINT RightFoot
				{
					OFFSET -2.500000 -6.900000 0.000000
					CHANNELS 3 Zrotation Yrotation Xrotation
					JOINT RightToeBase
					{
						OFFSET -0.200000 -0.500000 1.950000
						CHANNELS 3 Zrotation Yrotation Xrotation
						End Site
						{
							OFFSET 0.000000 0.000000 0.000000
						}
					}
				}
			}
		}
	}
	JOINT LowerBack
	{
		OFFSET 0.000000 0.000000 0.000000
		CHANNELS 3 Zrotation Yrotation Xrotation
		JOINT Spine
		{
			OFFSET -0.087000 1.940000 -0.288900
			CHANNELS 3 Zrotation Yrotation Xrotation
			JOINT Spine1
			{
				OFFSET 0.000000 1.950000 0.060000
				CHANNELS 3 Zrotation Yrotation Xrotation
				JOINT Neck
				{
					OFFSET 0.000000 0.000000 0.000000
					CHANNELS 3 Zrotation Yrotation Xrotation
					JOINT Neck1
					{
						OFFSET 0.000000 1.600000 0.340000
						CHANNELS 3 Zrotation Yrotation Xrotation
						JOINT Head
						{
							OFFSET 0.000000 1.667000 -0.240000
							CHANNELS 3 Zrotation Yrotation Xrotation
							End Site
							{
								OFFSET 0.000000 0.000000 0.000000
							}
						}
					}
				}
				JOINT LeftShoulder
				{
					OFFSET 0.000000 0.000000 0.000000
					CHANNELS 3 Zrotation Yrotation Xrotation
					JOINT LeftArm
					{
						OFFSET 2.700000 1.550000 -0.730000
						CHANNELS 3 Zrotation Yrotation Xrotation
						JOINT LeftForeArm
						{
							OFFSET 5.450000 0.000000 0.000000
							CHANNELS 3 Zrotation Yrotation Xrotation
							JOINT LeftHand
							{
								OFFSET 3.450000 0.000000 0.000000
								CHANNELS 3 Zrotation Yrotation Xrotation
								JOINT LeftHandIndex1
								{
									OFFSET 0.750000 0.000000 0.000000
									CHANNELS 3 Zrotation Yrotation Xrotation
									End Site
									{
										OFFSET 0.000000 0.000000 0.000000
									}
								}
							}
						}
					}
				}
				JOINT RightShoulder
				{
					OFFSET 0.000000 0.000000 0.000000
					CHANNELS 3 Zrotation Yrotation Xrotation
					JOINT RightArm
					{
						OFFSET -2.700000 1.550000 -0.730000
						CHANNELS 3 Zrotation Yrotation Xrotation
						JOINT RightForeArm
						{
							OFFSET -5.450000 0.000000 0.000000
							CHANNELS 3 Zrotation Yrotation Xrotation
							JOINT RightHand
							{
								OFFSET -3.450000 0.000000 0.000000
								CHANNELS 3 Zrotation Yrotation Xrotation
								JOINT RightHandIndex1
								{
									OFFSET -0.750000 0.000000 0.000000
									CHANNELS 3 Zrotation Yrotation Xrotation
									End Site
									{
										OFFSET 0.000000 0.000000 0.000000
									}
								}
							}
						}
					}
				}
			}
		}
	}
}
MOTION
Frames: 7
Frame Time: 0.016667
-0.126850 16.462080 -6.159170 -4.223914 18.775764 4.025365 -15.719938 7.380221 7.567057 45.640141 2.414243 -42.568158 -56.329334 21.785126 16.079441 1.686264 11.228980 0.989711 0.576620 0.205300 0.560400 18.858004 -5.724017 5.171432 -41.421370 2.242491 -37.253885 65.068444 -19.356374 14.535192 -1.707112 -8.635388 1.692143 -0.077960 0.005600 -0.010270 -3.328711 -1.048222 -11.623853 5.363818 -0.826012 34.001759 -8.195918 4.017275 5.409624 2.475672 0.059478 -16.981343 -3.056049 -5.583836 40.638955 7.427350 -7.445760 -11.180540 -32.479693 -26.670661 10.984736 -35.739270 -4.636049 -11.735931 144.905331 -72.672004 -151.700777 -3.165463 3.313364 0.536530 -0.141850 0.053940 0.261560 27.141909 30.153607 14.547269 45.080121 1.686102 -23.043074 -111.355229 56.204579 -88.554068 2.369321 -0.462895 -0.029290 0.151930 -0.398990 -0.169870 
-0.165690 16.396310 -6.173950 -4.382725 17.926526 3.033376 -15.728101 7.447631 7.638004 46.626402 2.842034 -42.088783 -57.219600 22.627468 16.561153 1.717139 11.380179 0.931364 0.577970 0.195230 0.552660 18.847220 -5.725312 5.107696 -40.607149 2.547989 -38.292983 64.501882 -21.205650 16.998582 -1.757657 -8.840501 1.617079 -0.084550 0.003880 -0.011880 -3.335245 -1.205191 -11.668444 5.221694 -1.407609 34.399620 -8.369583 3.741801 6.110973 2.443422 -1.102238 -18.044178 -5.614796 -4.009607 42.127265 9.635060 -7.900500 -11.900760 -33.614041 -28.394712 11.909072 -35.758211 -5.468821 -11.776876 133.216392 -70.911950 -138.080299 -3.264241 3.133588 0.562300 -0.169990 0.055840 0.242620 28.591931 32.542485 15.257308 43.662582 2.392260 -24.985527 -109.238437 57.045762 -84.717417 2.400545 -0.359262 -0.026510 0.158240 -0.372610 -0.170310 
-0.213550 16.367430 -6.195740 -4.453270 17.004485 2.433540 -15.753861 7.532416 7.666132 47.229241 3.025633 -41.587728 -57.301227 22.925483 16.795567 1.691330 11.439687 0.889162 0.617320 0.226710 0.566630 18.818610 -5.685640 5.092998 -39.968863 2.840854 -39.325285 63.955414 -22.380710 18.752168 -1.808794 -8.990769 1.562908 -0.062290 -0.009210 -0.001810 -3.281457 -1.412917 -11.696040 4.722653 -1.660921 34.376553 -8.036987 3.530576 7.377927 2.479426 -1.841593 -19.020768 -7.348868 -2.827021 43.287139 10.695430 -7.878090 -12.832140 -34.122826 -30.022462 12.722002 -35.913056 -6.804206 -11.930942 123.600127 -69.192292 -125.335880 -3.473171 2.639113 0.596280 -0.191610 0.069910 0.242740 29.258764 34.720533 15.880101 42.396210 3.350190 -27.095199 -106.053369 59.229715 -80.745709 2.425206 -0.262607 -0.020810 0.160560 -0.368620 -0.178070 
-0.270090 16.384110 -6.217830 -4.505806 15.987763 1.975166 -15.784864 7.657443 7.671426 47.521123 2.955382 -40.888160 -56.744612 22.664035 16.726307 1.656660 11.410182 0.866927 0.662990 0.275960 0.593280 18.774458 -5.664216 5.063698 -38.986334 3.262673 -39.939729 62.838873 -22.872160 20.064855 -1.837621 -9.038464 1.530021 -0.036380 -0.031360 0.009580 -3.202522 -1.652915 -11.700663 3.995677 -1.755023 34.211786 -7.416712 3.269356 8.613380 2.398057 -2.263281 -19.786326 -8.604279 -1.628172 44.830458 11.717740 -7.616280 -13.554700 -33.894372 -31.521843 13.231914 -36.589817 -8.185339 -13.662568 114.640917 -69.269968 -110.034682 -3.783065 1.618088 0.618890 -0.216590 0.098360 0.242040 29.387090 36.602727 16.404955 41.435690 4.288346 -29.044585 -100.727531 62.811932 -75.629050 2.463613 -0.223196 -0.001920 0.160450 -0.376490 -0.178770 
-0.336480 16.433940 -6.238670 -4.470630 15.395010 2.147938 -15.805833 7.774616 7.631437 47.173622 2.451767 -40.807607 -55.130607 22.092349 16.869700 1.571169 11.335280 0.865805 0.677580 0.315560 0.576120 18.738758 -5.669438 5.029189 -37.699875 3.468360 -40.536750 61.355939 -22.918124 20.917401 -1.819326 -9.013056 1.540768 -0.000780 0.005750 -0.005400 -3.136630 -1.866970 -11.661553 3.334081 -1.788690 32.939582 -6.509749 2.855015 10.357455 2.011263 -2.809002 -19.805353 -9.976571 -0.456304 45.803126 12.958450 -7.607410 -13.881130 -32.345464 -32.818193 12.872999 -38.311836 -9.827226 -17.281559 106.294365 -71.815482 -94.635991 -3.880870 0.816640 0.615860 -0.209250 0.091500 0.248100 28.787054 37.928513 16.774121 41.511406 5.166654 -29.659071 -93.646769 66.297353 -70.590387 2.424420 -0.229276 -0.011440 0.218040 -0.356530 -0.162490 
-0.416620 16.507780 -6.250620 -4.401012 14.574661 2.832640 -15.852367 7.856554 7.583855 46.789771 1.969779 -40.652221 -53.440642 20.994638 16.280800 1.443661 11.188951 0.877171 0.704130 0.357280 0.576070 18.687407 -5.674313 4.978327 -36.149299 3.747585 -41.293580 59.595229 -22.759020 21.697173 -1.781734 -8.979526 1.541790 0.052080 0.033720 -0.004740 -3.005136 -2.027228 -11.583607 2.205052 -1.322850 30.902058 -5.264283 2.540472 11.649967 1.627152 -2.770931 -18.786380 -9.839208 0.173752 46.023822 12.636010 -6.919670 -13.293180 -30.100758 -32.956351 11.981047 -40.310338 -11.714867 -18.527756 94.950294 -73.204547 -80.983256 -3.713212 1.004958 0.600160 -0.180310 0.072920 0.252030 27.396837 37.732531 16.109331 42.400498 6.307251 -27.952421 -80.675186 69.781324 -61.626324 2.006170 0.078706 -0.024260 0.246620 -0.343220 -0.163810 
-0.504100 16.621030 -6.266110 -4.148625 13.521444 3.485759 -15.890913 8.018299 7.438980 45.510245 1.203880 -40.399227 -50.338755 19.786855 16.214718 1.276640 10.959000 0.904182 0.747980 0.409350 0.608130 18.621757 -5.783261 4.904232 -34.070437 4.415489 -41.991759 56.591541 -22.353456 23.075688 -1.730463 -8.907418 1.540034 0.105820 0.047840 0.006450 -2.873243 -2.098791 -11.420469 0.875262 -0.514480 29.283908 -4.170691 2.615148 12.674415 1.261093 -2.215219 -17.509354 -8.566560 0.216873 46.302979 12.129250 -6.106160 -13.034420 -27.509311 -32.399489 10.828948 -42.065690 -14.213353 -17.801889 80.322079 -73.520195 -67.622981 -3.415795 1.216776 0.587210 -0.156360 0.065610 0.252040 25.512721 36.823112 15.134733 43.794956 7.752536 -27.958175 -59.191366 74.266049 -48.542002 1.604641 -0.071677 -0.027560 0.263720 -0.343050 -0.171050 
